<svg width="126" height="123" viewBox="0 0 126 123" fill="none" xmlns="http://www.w3.org/2000/svg">
<path d="M44.6204 69.2475H44.62C44.618 69.2475 44.6176 69.2504 44.6196 69.2508C44.6197 69.2509 44.6199 69.2509 44.62 69.251C44.6207 69.2514 44.621 69.2522 44.6208 69.2529L44.62 69.256L44.5891 69.3727L44.5841 69.3918L44.6204 69.2475ZM44.6204 69.2475H45.8684H44.6204ZM41.877 84.5103L45.5845 70.4975H59.264C59.5147 70.4975 59.7346 70.665 59.801 70.9068L63.5714 84.6221C63.6802 85.0563 63.9415 85.4852 64.4244 85.7471C64.8295 85.9668 65.2558 85.9888 65.5238 85.9888H73.7663C74.1831 85.9888 74.8617 85.8584 75.2444 85.1922C75.5576 84.6469 75.4558 84.0757 75.3909 83.8037L75.3833 83.7717L75.374 83.7402L59.4698 29.8048C59.4 29.4845 59.2402 29.0338 58.8078 28.7105C58.3681 28.3818 57.8829 28.3713 57.6713 28.3713H47.2012C46.8218 28.3713 46.3507 28.4915 45.9826 28.8802C45.6295 29.2528 45.5245 29.7108 45.5201 30.0845C45.443 32.5 45.2961 33.186 45.08 33.9487C45.0799 33.9489 45.0799 33.9491 45.0798 33.9492L30.883 83.6718L30.859 83.7561L30.8469 83.8428C30.8242 84.0059 30.8015 84.2123 30.8109 84.4228C30.8203 84.6313 30.8649 84.9605 31.0773 85.2805C31.5475 85.9888 32.3518 85.9888 32.5897 85.9888H32.5912H39.9338H39.9474C40.1692 85.9889 40.6847 85.9892 41.1371 85.6908C41.6612 85.3451 41.8158 84.8176 41.877 84.5103ZM49.4948 55.715C50.6097 51.4711 51.7553 47.0242 52.6406 43.1893C53.5999 47.0863 54.805 51.6736 55.826 55.5603L55.8797 55.7647C56.4266 57.8465 54.8599 59.875 52.6981 59.875C50.5259 59.875 48.9418 57.8197 49.4948 55.715ZM79.7988 33.3433V33.3447C79.801 35.258 80.4035 36.8832 81.5774 38.029C82.7457 39.1695 84.3444 39.7025 86.0887 39.7025C87.8653 39.7025 89.5019 39.1731 90.7043 38.0405C91.9178 36.8974 92.555 35.2657 92.555 33.3337C92.555 31.5195 91.9337 29.9081 90.7728 28.7472C89.6119 27.5863 88.0005 26.965 86.1862 26.965C84.4691 26.965 82.8661 27.5309 81.6828 28.6591C80.5349 29.7537 79.8708 31.2934 79.8206 33.1105C79.8062 33.1863 79.7988 33.2642 79.7988 33.3433ZM23 1.75C11.264 1.75 1.75 11.264 1.75 23V99.9925C1.75 111.729 11.2639 121.243 23 121.243H103C114.736 121.243 124.25 111.729 124.25 99.9925V23C124.25 11.264 114.736 1.75 103 1.75H23ZM9.24875 27.9988C9.24875 17.6434 17.6434 9.24875 27.9987 9.24875H97.9975C108.353 9.24875 116.747 17.6434 116.747 27.9988V94.99C116.747 105.345 108.353 113.74 97.9975 113.74H27.9987C17.6434 113.74 9.24875 105.345 9.24875 94.99V27.9988ZM80.384 44.664C80.3825 44.7758 80.3955 44.8844 80.4212 44.9879V84.1312C80.4212 84.4556 80.4762 85.0058 80.8988 85.4592C81.3375 85.93 81.9149 86.0263 82.335 86.0263H90.0713C90.3528 86.0263 91.0016 86.0073 91.4748 85.4913C91.9088 85.018 91.9069 84.419 91.9063 84.2283C91.9063 84.2217 91.9062 84.2156 91.9062 84.21V44.7375C91.9062 44.4324 91.864 43.8487 91.3981 43.392C90.94 42.9429 90.3612 42.9025 90.0525 42.9025H82.2C81.8876 42.9025 81.3509 42.9527 80.9124 43.3645C80.4582 43.791 80.3884 44.3388 80.384 44.664ZM81.5281 43.4543C81.5325 43.4539 81.5368 43.4535 81.5412 43.4531C81.5368 43.4535 81.5325 43.4539 81.5282 43.4543L81.5281 43.4543Z" fill="#F7F7F7" stroke="#F7F7F7" stroke-width="2.5"/>
</svg>
