<svg width="88" height="127" viewBox="0 0 88 127" fill="none" xmlns="http://www.w3.org/2000/svg">
<path d="M43.9967 5H24.4983C19.3271 5 14.3676 7.05428 10.7109 10.7109C7.05428 14.3676 5 19.3271 5 24.4983C5 29.6696 7.05428 34.6291 10.7109 38.2857C14.3676 41.9424 19.3271 43.9967 24.4983 43.9967M43.9967 5V43.9967M43.9967 5H63.4949C66.0555 5 68.591 5.50434 70.9566 6.48422C73.3223 7.4641 75.4717 8.90034 77.2823 10.7109C79.0929 12.5215 80.5291 14.671 81.509 17.0366C82.4889 19.4023 82.9932 21.9378 82.9932 24.4983C82.9932 27.0589 82.4889 29.5944 81.509 31.96C80.5291 34.3257 79.0929 36.4751 77.2823 38.2857C75.4717 40.0963 73.3223 41.5326 70.9566 42.5124C68.591 43.4923 66.0555 43.9967 63.4949 43.9967M43.9967 43.9967H24.4983M43.9967 43.9967H63.4949M43.9967 43.9967V82.9933M24.4983 43.9967C19.3271 43.9967 14.3676 46.051 10.7109 49.7076C7.05428 53.3643 5 58.3237 5 63.495C5 68.6663 7.05428 73.6258 10.7109 77.2824C14.3676 80.9391 19.3271 82.9933 24.4983 82.9933M63.4949 43.9967C60.9344 43.9967 58.3989 44.501 56.0332 45.4809C53.6676 46.4608 51.5181 47.897 49.7075 49.7076C47.8969 51.5182 46.4607 53.6677 45.4808 56.0333C44.5009 58.399 43.9966 60.9344 43.9966 63.495C43.9966 66.0556 44.5009 68.591 45.4808 70.9567C46.4607 73.3223 47.8969 75.4718 49.7075 77.2824C51.5181 79.093 53.6676 80.5292 56.0332 81.5091C58.3989 82.489 60.9344 82.9933 63.4949 82.9933C66.0555 82.9933 68.591 82.489 70.9566 81.5091C73.3223 80.5292 75.4717 79.093 77.2823 77.2824C79.0929 75.4718 80.5291 73.3223 81.509 70.9567C82.4889 68.591 82.9932 66.0556 82.9932 63.495C82.9932 60.9344 82.4889 58.399 81.509 56.0333C80.5291 53.6677 79.0929 51.5182 77.2823 49.7076C75.4717 47.897 73.3223 46.4608 70.9566 45.4809C68.591 44.501 66.0555 43.9967 63.4949 43.9967ZM24.4983 82.9933C19.3271 82.9933 14.3676 85.0476 10.7109 88.7043C7.05428 92.3609 5 97.3204 5 102.492C5 107.663 7.05428 112.622 10.7109 116.279C14.3676 119.936 19.3271 121.99 24.4983 121.99C29.6696 121.99 34.6291 119.936 38.2857 116.279C41.9424 112.622 43.9967 107.663 43.9967 102.492V82.9933M24.4983 82.9933H43.9967" stroke="#F7F7F7" stroke-width="10" stroke-linecap="round" stroke-linejoin="round"/>
</svg>
