<svg width="115" height="125" viewBox="0 0 115 125" fill="none" xmlns="http://www.w3.org/2000/svg">
<path d="M113.452 1.93452C112.898 1.3248 112.224 0.8379 111.473 0.504839C110.722 0.171778 109.911 -0.000150517 109.091 9.88733e-08H5.90939C5.08901 2.62321e-05 4.27762 0.1721 3.52688 0.505266C2.77614 0.838432 2.10249 1.32539 1.54882 1.93514C0.995153 2.5449 0.573591 3.26409 0.310974 4.04692C0.048357 4.82976 -0.0495618 5.6591 0.0234519 6.48214L9.006 107.673C9.11338 108.877 9.58261 110.021 10.3512 110.95C11.1198 111.879 12.1512 112.551 13.3082 112.875L55.8571 124.78C56.3726 124.925 56.9054 124.999 57.4408 125C57.9739 125 58.5046 124.928 59.0187 124.786L101.686 112.881C102.845 112.557 103.878 111.886 104.648 110.955C105.418 110.024 105.887 108.879 105.994 107.673L114.976 6.48214C115.05 5.65905 114.952 4.82962 114.689 4.04667C114.427 3.26373 114.005 2.54441 113.452 1.93452ZM94.5825 102.506L57.4468 112.869L20.4174 102.512L12.3685 11.9048H102.631L94.5825 102.506ZM32.7979 65.4762H73.5444L71.612 84.9464L56.4362 90.4048L37.7383 83.6786C36.2619 83.1474 34.6365 83.2286 33.2196 83.9046C31.8027 84.5805 30.7104 85.7956 30.183 87.2827C29.6556 88.7698 29.7362 90.4071 30.4073 91.8343C31.0784 93.2614 32.2848 94.3616 33.7612 94.8929L54.4447 102.333C55.7308 102.795 57.1357 102.795 58.4218 102.333L79.1053 94.8929C80.1588 94.5143 81.084 93.8424 81.7734 92.9552C82.4628 92.068 82.8881 91.002 82.9997 89.881L85.9545 60.1191C86.0371 59.2913 85.9465 58.4554 85.6886 57.6651C85.4307 56.8748 85.0112 56.1477 84.4572 55.5308C83.9032 54.9139 83.2269 54.4207 82.472 54.0833C81.7171 53.7458 80.9004 53.5714 80.0745 53.5714H38.1461L36.3732 35.7143H83.0293C84.5966 35.7143 86.0997 35.0872 87.208 33.9709C88.3163 32.8546 88.9389 31.3406 88.9389 29.7619C88.9389 28.1832 88.3163 26.6692 87.208 25.5529C86.0997 24.4366 84.5966 23.8095 83.0293 23.8095H29.8432C29.0173 23.8095 28.2005 23.9839 27.4456 24.3214C26.6908 24.6588 26.0145 25.152 25.4604 25.7689C24.9064 26.3858 24.4869 27.1129 24.229 27.9032C23.9711 28.6935 23.8805 29.5294 23.9631 30.3571L26.9179 60.1191C27.0644 61.5873 27.7471 62.9484 28.8336 63.9382C29.9201 64.9281 31.3329 65.4762 32.7979 65.4762Z" fill="#F7F7F7"/>
</svg>
